<svg width="106" height="106" viewBox="0 0 106 106" fill="none" xmlns="http://www.w3.org/2000/svg">
<path fill-rule="evenodd" clip-rule="evenodd" d="M39.43 64.4452H66.2282L52.7065 27.4313L39.43 64.4452ZM75.4038 89.3452L71.1207 78.0894H34.6567L30.3737 89.5904C28.7042 94.0755 27.2765 97.1064 26.0939 98.6766C24.9114 100.247 22.9735 101.032 20.2805 101.032C17.9949 101.032 15.9775 100.194 14.2219 98.5242C12.4696 96.8514 11.5918 94.9533 11.5918 92.8333C11.5918 91.611 11.7972 90.3456 12.2046 89.0405C12.612 87.7354 13.2845 85.9201 14.2219 83.5947L37.1676 25.3511C37.8202 23.6782 38.6052 21.6709 39.5228 19.3256C40.4404 16.9804 41.4175 15.0326 42.4577 13.4824C43.4978 11.9321 44.8659 10.6767 46.5585 9.71936C48.2512 8.76205 50.3414 8.28174 52.8291 8.28174C55.3565 8.28174 57.4666 8.76205 59.1593 9.71936C60.852 10.6767 62.22 11.9122 63.2602 13.4194C64.3003 14.9299 65.1781 16.5497 65.8903 18.2855C66.6058 20.0179 67.5134 22.3334 68.6132 25.2285L92.0458 83.1045C93.8809 87.5101 94.7985 90.7133 94.7985 92.7107C94.7985 94.791 93.9306 96.699 92.1982 98.4314C90.4657 100.164 88.3755 101.032 85.9276 101.032C84.4999 101.032 83.2776 100.777 82.2574 100.267C81.2371 99.7564 80.3792 99.0641 79.6869 98.1863C78.9945 97.3085 78.2492 95.9636 77.4542 94.1484C76.6592 92.3331 75.9769 90.7332 75.4038 89.3452Z" fill="#F42F42"/>
<path fill-rule="evenodd" clip-rule="evenodd" d="M39.43 64.4452H66.2282L52.7065 27.4313L39.43 64.4452ZM75.4038 89.3452L71.1207 78.0894H34.6567L30.3737 89.5904C28.7042 94.0755 27.2765 97.1064 26.0939 98.6766C24.9114 100.247 22.9735 101.032 20.2805 101.032C17.9949 101.032 15.9775 100.194 14.2219 98.5242C12.4696 96.8514 11.5918 94.9533 11.5918 92.8333C11.5918 91.611 11.7972 90.3456 12.2046 89.0405C12.612 87.7354 13.2845 85.9201 14.2219 83.5947L37.1676 25.3511C37.8202 23.6782 38.6052 21.6709 39.5228 19.3256C40.4404 16.9804 41.4175 15.0326 42.4577 13.4824C43.4978 11.9321 44.8659 10.6767 46.5585 9.71936C48.2512 8.76205 50.3414 8.28174 52.8291 8.28174C55.3565 8.28174 57.4666 8.76205 59.1593 9.71936C60.852 10.6767 62.22 11.9122 63.2602 13.4194C64.3003 14.9299 65.1781 16.5497 65.8903 18.2855C66.6058 20.0179 67.5134 22.3334 68.6132 25.2285L92.0458 83.1045C93.8809 87.5101 94.7985 90.7133 94.7985 92.7107C94.7985 94.791 93.9306 96.699 92.1982 98.4314C90.4657 100.164 88.3755 101.032 85.9276 101.032C84.4999 101.032 83.2776 100.777 82.2574 100.267C81.2371 99.7564 80.3792 99.0641 79.6869 98.1863C78.9945 97.3085 78.2492 95.9636 77.4542 94.1484C76.6592 92.3331 75.9769 90.7332 75.4038 89.3452Z" stroke="#330910"/>
<path opacity="0.204" fill-rule="evenodd" clip-rule="evenodd" d="M24.7689 94.3675C23.911 95.5103 22.4402 96.0635 20.2805 96.0635C18.4189 96.0635 16.8123 95.3943 15.368 94.0163C14.361 93.0557 13.7416 92.0388 13.4501 90.9423C13.3275 91.5883 13.248 92.2243 13.248 92.8338C13.248 94.4966 13.9404 95.9641 15.368 97.3288C16.8123 98.7068 18.4189 99.376 20.2805 99.376C22.4402 99.376 23.911 98.8228 24.7689 97.68C25.8521 96.239 27.2169 93.324 28.8234 89.0112L32.9541 77.9176C32.9541 77.9176 25.6567 93.1882 24.7689 94.3675ZM72.7107 77.6095L76.9375 88.7163C77.5006 90.091 78.1797 91.6777 78.9714 93.4797C79.7034 95.1592 80.3858 96.3947 80.9887 97.1632C81.5286 97.8489 82.1878 98.3822 82.9927 98.7863C83.7811 99.1772 84.7682 99.376 85.9276 99.376C87.935 99.376 89.6045 98.6837 91.0255 97.2593C92.4499 95.8349 93.1422 94.3476 93.1422 92.7112C93.1422 92.2872 93.0793 91.6877 92.917 90.8827C92.6155 91.9527 92.006 92.9663 91.0255 93.9468C89.6045 95.3712 87.935 96.0635 85.9276 96.0635C84.7682 96.0635 83.7811 95.8647 82.9927 95.4738C82.1878 95.0697 81.5286 94.5364 80.9887 93.8507C80.3858 93.0822 79.7034 91.8467 78.9714 90.1672C78.1797 88.3652 77.5006 86.7785 76.9375 85.4038L72.7107 77.6095Z" fill="#332E09"/>
<path d="M42.2946 26.4287L33.8047 48.374" stroke="white" stroke-linecap="round" stroke-linejoin="round" stroke-dasharray="1 2 6 2 3 1 2 6"/>
<path d="M81.6683 29.0244H80.0597C79.175 29.0244 78.4512 28.3104 78.4512 27.4376V9.58675C78.4512 8.71404 79.175 8 80.0597 8H81.6683C82.553 8 83.2768 8.71404 83.2768 9.58675V27.4376C83.2768 28.3104 82.553 29.0244 81.6683 29.0244Z" fill="#D12A2A" stroke="black" stroke-miterlimit="10"/>
<path opacity="0.5" d="M82.0526 20.3861H79.6746C79.1586 20.3861 78.7363 19.9696 78.7363 19.4605V15.8441C78.7363 15.335 79.1586 14.9185 79.6746 14.9185H82.0526C82.5687 14.9185 82.9909 15.335 82.9909 15.8441V19.4618C82.9896 19.9696 82.5687 20.3861 82.0526 20.3861Z" fill="#EA4949"/>
<path d="M91.1175 20.6278H70.6085C69.7238 20.6278 69 19.9138 69 19.0411V17.9832C69 17.1105 69.7238 16.3965 70.6085 16.3965H91.1175C92.0022 16.3965 92.726 17.1105 92.726 17.9832V19.0411C92.726 19.9138 92.0022 20.6278 91.1175 20.6278Z" fill="#D12A2A" stroke="black" stroke-miterlimit="10"/>
</svg>
