<svg width="124" height="124" viewBox="0 0 124 124" fill="none" xmlns="http://www.w3.org/2000/svg">
<path d="M123.64 102.344L118.646 95.6776C118.044 94.8749 116.906 94.7115 116.103 95.3126C115.3 95.9139 115.137 97.0527 115.738 97.8553L118.555 101.616H82.7496V89.5855C82.7496 88.5821 81.9366 87.769 80.9332 87.769C79.9298 87.769 79.1167 88.5821 79.1167 89.5855V101.616H41.5235V78.1947C41.5235 77.1913 40.7105 76.3783 39.7071 76.3783C38.7037 76.3783 37.8906 77.1913 37.8906 78.1947V101.616H21.3727V62.352C26.8486 62.9265 32.4481 63.299 37.8906 63.2936V70.9319C37.8906 71.9353 38.7037 72.7483 39.7071 72.7483C40.7105 72.7483 41.5235 71.9353 41.5235 70.9319V63.2328C55.6869 62.7596 68.563 59.4709 79.1167 50.0131V82.3226C79.1167 83.326 79.9298 84.1391 80.9332 84.1391C81.9366 84.1391 82.7496 83.326 82.7496 82.3226V46.3765C88.7625 39.7567 93.7475 30.9594 97.9951 19.5911C98.3463 18.6514 97.8689 17.6049 96.9294 17.254C95.989 16.9023 94.943 17.3802 94.5923 18.3196C81.1495 54.2955 60.5857 62.8851 21.3727 58.6983V5.44495L25.1337 8.26212C25.9382 8.8647 27.0763 8.69831 27.6764 7.89714C28.2778 7.09452 28.1146 5.95573 27.3115 5.35437L20.6451 0.360864C19.9922 -0.128847 19.0973 -0.111652 18.4674 0.360864L11.801 5.35437C10.9982 5.95573 10.8347 7.09452 11.436 7.89714C12.0377 8.70025 13.1764 8.86348 13.9788 8.26212L17.7398 5.44495V101.616H1.81644C0.813037 101.616 0 102.429 0 103.433C0 104.436 0.813037 105.249 1.81644 105.249H17.7398V122.184C17.7398 123.187 18.5528 124 19.5562 124C20.5596 124 21.3727 123.187 21.3727 122.184V105.249H118.555L115.738 109.01C115.137 109.813 115.3 110.952 116.103 111.553C116.908 112.156 118.046 111.989 118.646 111.188L123.64 104.522C124.13 103.87 124.111 102.97 123.64 102.344Z" fill="black"/>
<path d="M80.9321 45.6943C79.0982 47.6544 77.1593 49.4125 75.1055 50.9821V103.433H80.9333V45.6946L80.9321 45.6943Z" fill="#DD636E"/>
<path d="M5.33377 23.5228H5.74574V34.6006C5.74574 35.604 6.55878 36.4171 7.56218 36.4171C8.56558 36.4171 9.37862 35.604 9.37862 34.6006V23.5228H10.5048C11.5082 23.5228 12.3212 22.7098 12.3212 21.7064C12.3212 20.703 11.5082 19.8899 10.5048 19.8899H9.37862V17.1984C9.37862 16.9606 9.4164 16.8494 9.43069 16.8163C9.5731 16.7325 10.0325 16.7124 10.3513 16.7778C11.3239 16.9921 12.2898 16.3839 12.5135 15.4111C12.7383 14.4336 12.128 13.4585 11.1502 13.2338C10.7543 13.1427 8.70169 12.7516 7.15651 13.9816C6.513 14.4939 5.74598 15.468 5.74598 17.1984V19.8897H5.33402C4.33062 19.8897 3.51758 20.7027 3.51758 21.7061C3.51758 22.7095 4.33037 23.5228 5.33377 23.5228Z" fill="black"/>
<path d="M43.7024 111.311C42.9797 111.311 42.3578 111.734 42.0652 112.345C41.3437 112.023 40.5457 111.842 39.7058 111.842C36.5005 111.842 33.8926 114.45 33.8926 117.655C33.8926 120.861 36.5005 123.469 39.7058 123.469C40.5455 123.469 41.3435 123.288 42.0652 122.966C42.3578 123.577 42.98 124 43.7024 124C44.7058 124 45.5188 123.187 45.5188 122.184V113.127C45.5188 112.124 44.7058 111.311 43.7024 111.311ZM39.7058 119.836C38.5036 119.836 37.5254 118.858 37.5254 117.656C37.5254 116.453 38.5036 115.475 39.7058 115.475C40.908 115.475 41.886 116.453 41.886 117.656C41.886 118.858 40.908 119.836 39.7058 119.836Z" fill="black"/>
<path d="M80.9342 111.437C79.988 111.437 79.0907 111.648 78.2852 112.025V108.867C78.2852 107.864 77.4721 107.051 76.4688 107.051C75.4654 107.051 74.6523 107.864 74.6523 108.867V122.184C74.6523 123.187 75.4654 124 76.4688 124C77.0769 124 77.6138 123.7 77.9434 123.242C78.8332 123.725 79.8521 124 80.934 124C84.3978 124 87.2159 121.182 87.2159 117.718C87.2159 114.255 84.398 111.437 80.9342 111.437ZM80.9342 120.368C79.4736 120.368 78.2852 119.179 78.2852 117.718C78.2852 116.258 79.4733 115.069 80.9342 115.069C82.3951 115.069 83.5833 116.258 83.5833 117.718C83.5833 119.179 82.3949 120.368 80.9342 120.368Z" fill="black"/>
<path d="M39.707 61.4501V61.4506V103.433H80.9331V45.6946L80.9319 45.6943C70.933 56.3813 57.8394 61.1268 39.707 61.4501Z" fill="#E28086"/>
</svg>
