<svg width="124" height="124" viewBox="0 0 124 124" fill="none" xmlns="http://www.w3.org/2000/svg">
<path d="M15.9941 2.66455H99.42V111.312H15.9941V2.66455Z" fill="#FCDB35"/>
<path d="M15.9941 2.66455H18.8134V111.312H15.9941V2.66455Z" fill="#FDC72E"/>
<path fill-rule="evenodd" clip-rule="evenodd" d="M5.96875 12.6885H72.5783L89.3948 29.505V121.336H5.96875V12.6885Z" fill="#E9E9FF"/>
<path fill-rule="evenodd" clip-rule="evenodd" d="M72.5781 12.6885L89.3947 29.505H72.5781V12.6885Z" fill="#BCBCF5"/>
<path fill-rule="evenodd" clip-rule="evenodd" d="M78.9268 77.3212L76.418 95.5068L90.9126 84.241L117.108 38.8688C119.011 35.5726 117.871 31.3189 114.575 29.416C111.279 27.5129 107.026 28.6526 105.123 31.9488L78.927 77.3209L78.9268 77.3212Z" fill="#2A92FA"/>
<path fill-rule="evenodd" clip-rule="evenodd" d="M76.418 95.5068L90.9126 84.241L117.108 38.8688C119.011 35.5727 117.872 31.3189 114.575 29.416L76.418 95.5068Z" fill="#4EB1FC"/>
<path fill-rule="evenodd" clip-rule="evenodd" d="M100.998 39.0924L112.984 46.0124L117.108 38.8686C119.011 35.5727 117.871 31.3189 114.575 29.4158C111.284 27.5153 107.023 28.657 105.122 31.9486L100.998 39.0924H100.998Z" fill="#323E66"/>
<path fill-rule="evenodd" clip-rule="evenodd" d="M106.992 42.5525L112.985 46.0124L117.109 38.8686C119.012 35.5727 117.872 31.3189 114.577 29.416L106.992 42.5525Z" fill="#3D4A75"/>
<path d="M100.998 39.0952L103.844 34.1656L115.83 41.0855L112.983 46.0151L100.998 39.0952Z" fill="#E6B17C"/>
<path d="M106.99 42.5557L109.836 37.6261L115.829 41.086L112.983 46.0156L106.99 42.5557Z" fill="#F9C795"/>
<path fill-rule="evenodd" clip-rule="evenodd" d="M78.927 77.3208L76.418 95.5064L90.9126 84.2408L78.927 77.3208Z" fill="#E6B17C"/>
<path fill-rule="evenodd" clip-rule="evenodd" d="M76.418 95.5067L90.9126 84.2411L84.9197 80.7812L76.418 95.5067Z" fill="#F9C795"/>
<path fill-rule="evenodd" clip-rule="evenodd" d="M77.4896 87.7388L76.418 95.5064L82.609 90.6944L77.4896 87.7388Z" fill="#3D4A75"/>
<path fill-rule="evenodd" clip-rule="evenodd" d="M57.3689 90.5589C57.3689 92.4342 55.8344 93.9687 53.9591 93.9687H41.4039C39.5286 93.9687 37.9941 92.4342 37.9941 90.5589V88.7495C37.9941 79.3652 28.3066 76.7293 28.3066 64.1178C28.3066 52.5468 37.9939 46.7612 47.6814 46.7612C57.3689 46.7612 67.0564 52.5468 67.0564 64.1178C67.0564 76.7293 57.3689 79.3652 57.3689 88.7495V90.5589Z" fill="#F9AC00"/>
<path fill-rule="evenodd" clip-rule="evenodd" d="M57.3682 90.5588C57.3682 92.4343 55.8337 93.9685 53.9584 93.9685H45.9117C44.0365 93.9685 42.502 92.434 42.502 90.5588V88.7494C42.502 79.3651 32.8145 76.7291 32.8145 64.1177C32.8145 53.446 41.0544 47.6955 49.9349 46.8662C58.8155 47.6957 67.0554 53.4462 67.0554 64.1177C67.0554 76.7291 57.3679 79.3651 57.3679 88.7494V90.5588H57.3682Z" fill="#FDC72E"/>
<path fill-rule="evenodd" clip-rule="evenodd" d="M42.5 91.0493H52.8634V95.8647C52.8634 97.2997 51.6888 98.4743 50.2539 98.4743H45.1096C43.6744 98.4743 42.5 97.2999 42.5 95.8647V91.0493Z" fill="#5D689E"/>
<path fill-rule="evenodd" clip-rule="evenodd" d="M45.627 91.0493H52.8635V95.8647C52.8635 97.2997 51.6889 98.4743 50.2539 98.4743H48.2365C46.8013 98.4743 45.627 97.2999 45.627 95.8647V91.0493Z" fill="#7986BF"/>
<path fill-rule="evenodd" clip-rule="evenodd" d="M57.3691 90.5589C57.3691 92.4341 55.8346 93.9686 53.9594 93.9686H41.4039C39.5284 93.9686 37.9941 92.4341 37.9941 90.5589V88.7495H57.3689V90.5589H57.3691Z" fill="#7986BF"/>
<path fill-rule="evenodd" clip-rule="evenodd" d="M57.3682 90.5589C57.3682 92.4327 55.8363 93.9662 53.9628 93.9686H45.9117C44.0365 93.9686 42.502 92.4341 42.502 90.5589V88.7495H57.3682V90.5589Z" fill="#909CD1"/>
<path d="M5.96875 12.6885H8.78805V121.336H5.96875V12.6885Z" fill="#D1D1F0"/>
<path fill-rule="evenodd" clip-rule="evenodd" d="M113.963 30.4648C112.656 29.707 111.112 29.505 109.639 29.9029C108.154 30.2974 106.931 31.2393 106.171 32.5553L105.493 33.7193L115.388 39.4281L116.053 38.263C117.633 35.5357 116.695 32.0387 113.963 30.4648ZM98.2124 74.027L91.9525 84.8458C91.8813 84.9812 91.7743 85.1001 91.6556 85.1962L90.5985 86.0122V110.101H98.2124V74.027ZM88.187 120.125V87.8949L77.152 96.4628C76.9381 96.6304 76.6768 96.7171 76.4155 96.7171C76.2016 96.7171 75.9997 96.6636 75.8098 96.5556C75.3821 96.3085 75.1445 95.8288 75.2159 95.3417L77.7221 77.1561C77.7458 77.0016 77.7933 76.8509 77.8766 76.7153L88.187 58.8658V30.7166H72.579C71.9018 30.7166 71.3673 30.1739 71.3673 29.505V13.8994H7.17723V120.125H88.187ZM17.2026 11.4773V3.87524H98.2121V41.5032L90.5982 54.6714V29.505C90.5982 29.1831 90.4793 28.8755 90.2536 28.6486L73.4339 11.8301C73.2082 11.6056 72.8994 11.4773 72.5788 11.4773H17.2026ZM112.538 44.3588L102.655 38.6478L104.282 35.8171L114.177 41.526L112.538 44.3588ZM111.326 46.4566L90.4677 82.5867L86.5716 80.3382L107.43 44.207L111.326 46.4566ZM88.7453 84.3897L82.5092 89.2386L78.7914 87.0981L79.8722 79.2704L88.7453 84.39V84.3897ZM78.0193 92.7234L78.447 89.6874L80.4424 90.8419L78.0193 92.7234ZM80.5731 76.8778L101.443 40.7454L105.339 42.9951L84.4692 79.1275L80.5731 76.8778ZM73.7907 28.2945V15.6109L86.4648 28.2945H73.7907ZM118.156 39.4744L100.624 69.8316V111.312C100.624 111.98 100.089 112.523 99.4119 112.523H90.5982V121.336C90.5982 122.004 90.0637 122.546 89.3984 122.546H5.96557C5.30028 122.546 4.75391 122.004 4.75391 121.336V12.6877C4.75391 12.019 5.30028 11.4773 5.96557 11.4773H14.7793V2.66358C14.7793 1.9949 15.3138 1.45312 15.9909 1.45312H99.4119C100.089 1.45312 100.624 1.9949 100.624 2.66358V37.309L104.068 31.3437C105.149 29.4694 106.907 28.1248 109.01 27.5629C111.112 26.9986 113.309 27.2848 115.174 28.3669C119.059 30.6072 120.401 35.5914 118.156 39.4744H118.156ZM50.9366 72.6173C50.4021 73.957 49.7487 74.911 49.0362 75.4051C49.4995 70.8878 50.8892 69.3993 51.3287 69.2022C51.5189 69.5051 51.7206 70.6417 50.9366 72.6173ZM65.7963 64.1361C65.7963 70.5027 63.1831 74.1481 60.6648 77.6736C58.6336 80.5055 56.543 83.4263 56.1868 87.5028H48.8935V78.1047C50.2476 77.7853 51.9226 76.677 53.1817 73.5114C54.2389 70.859 54.1558 68.5795 52.9797 67.4202C52.2907 66.7466 51.3287 66.5769 50.414 66.9641C48.8105 67.6352 47.1236 70.1903 46.6129 75.3373C45.3181 74.4678 43.9997 72.3797 43.5245 69.3114C43.4296 68.6497 42.7999 68.1973 42.1467 68.2995C41.4816 68.4042 41.0302 69.0242 41.137 69.6822C41.7783 73.8313 43.9047 77.0539 46.4702 77.9602V87.5031H39.1651C38.8089 83.4266 36.7299 80.5055 34.6989 77.6739C32.1688 74.1484 29.5556 70.503 29.5556 64.1363C29.5556 53.0681 38.9513 48.0282 47.6819 48.0282C56.4125 48.0282 65.7963 53.0679 65.7963 64.1361ZM56.1274 90.52C56.1274 91.728 55.1534 92.7116 53.9419 92.7116H41.4104C40.2106 92.7116 39.2249 91.728 39.2249 90.52V89.9237H56.1277V90.52H56.1274ZM51.6375 95.8142C51.6375 96.5815 51.0081 97.2063 50.2479 97.2063H45.1164C44.3443 97.2063 43.7149 96.5815 43.7149 95.8142V95.1337H51.6378V95.8142H51.6375ZM68.2196 64.1361C68.2196 71.2809 65.2502 75.4264 62.6251 79.0837C60.4396 82.1328 58.5508 84.7651 58.5508 88.7133V90.52C58.5508 93.024 56.5554 95.0634 54.0609 95.1264V95.8142C54.0609 97.9166 52.3505 99.6284 50.2479 99.6284H45.1164C43.014 99.6284 41.2915 97.9169 41.2915 95.8142V95.1264C38.8089 95.0634 36.8014 93.024 36.8014 90.52V88.7133C36.8014 84.7649 34.9128 82.1328 32.7273 79.0837C30.1022 75.4264 27.1325 71.2809 27.1325 64.1361C27.1325 58.4038 29.3895 53.5835 33.6299 50.2006C37.3477 47.2382 42.3368 45.6061 47.6819 45.6061C53.027 45.6061 58.0042 47.2382 61.722 50.2006C65.9743 53.5835 68.2194 58.4038 68.2194 64.1361H68.2196ZM47.6821 42.4073C47.005 42.4073 46.4705 41.8645 46.4705 41.1956V35.6057C46.4705 34.9382 47.005 34.3952 47.6821 34.3952C48.3472 34.3952 48.8935 34.938 48.8935 35.6057V41.1956C48.8935 41.8643 48.3472 42.4073 47.6821 42.4073ZM23.0347 62.3781C23.7 62.4459 24.1752 63.0409 24.1158 63.7048C24.0562 64.3296 23.5217 64.7939 22.916 64.7939C22.8686 64.7939 22.833 64.7915 22.7855 64.7881L17.2266 64.225C16.5613 64.1572 16.0742 63.5645 16.1457 62.8983C16.205 62.2318 16.7991 61.7462 17.4641 61.8162L23.0349 62.3781H23.0347ZM67.2218 42.6637C67.6733 42.1673 68.4335 42.128 68.9321 42.577C69.4311 43.0248 69.4667 43.7921 69.0152 44.2864L65.2737 48.4356C65.0361 48.6993 64.7035 48.8347 64.3708 48.8347C64.0857 48.8347 63.7888 48.7313 63.5631 48.5198C63.0642 48.072 63.0286 47.306 63.4679 46.8095L67.2216 42.664L67.2218 42.6637ZM79.2188 62.8985C79.2782 63.5648 78.803 64.1576 78.1379 64.2252L72.5671 64.7883C72.5315 64.7917 72.4838 64.7941 72.4482 64.7941C71.8306 64.7941 71.308 64.3296 71.2484 63.705C71.1772 63.0409 71.6643 62.4459 72.3293 62.3783L77.8882 61.8164C78.5535 61.7464 79.1474 62.2323 79.2186 62.8985H79.2188ZM30.0904 48.4356L26.3369 44.2864C25.8855 43.7923 25.933 43.0248 26.42 42.577C26.9189 42.128 27.691 42.1673 28.1306 42.6637L31.884 46.8093C32.3354 47.3058 32.288 48.0718 31.8009 48.5196C31.5633 48.731 31.2783 48.8344 30.9814 48.8344C30.6607 48.8344 30.3282 48.6991 30.0906 48.4353L30.0904 48.4356Z" fill="black"/>
</svg>
