<svg width="113" height="118" viewBox="0 0 113 118" fill="none" xmlns="http://www.w3.org/2000/svg">
<g clip-path="url(#clip0_60_3984)">
<path d="M90.0042 107.635H13.3502C12.7076 107.635 12.1855 107.115 12.1855 106.474V21.0311C12.1855 20.3903 12.7059 19.8696 13.3502 19.8696H90.0042C90.6468 19.8696 91.1689 20.3903 91.1689 21.0311V106.476C91.1672 107.116 90.6468 107.635 90.0042 107.635Z" fill="#DFF6FD"/>
<path d="M71.9849 37.2106H31.3643C30.6414 37.2106 30.0547 36.6255 30.0547 35.9046C30.0547 35.1837 30.6414 34.5986 31.3643 34.5986H71.9849C72.7078 34.5986 73.2945 35.1837 73.2945 35.9046C73.2945 36.6255 72.7078 37.2106 71.9849 37.2106Z" fill="black"/>
<path d="M71.9849 45.6496H31.3643C30.6414 45.6496 30.0547 45.0645 30.0547 44.3436C30.0547 43.6227 30.6414 43.0376 31.3643 43.0376H71.9849C72.7078 43.0376 73.2945 43.6227 73.2945 44.3436C73.2945 45.0645 72.7078 45.6496 71.9849 45.6496Z" fill="black"/>
<path d="M71.9847 54.0885H48.3506C47.6277 54.0885 47.041 53.5034 47.041 52.7825C47.041 52.0616 47.6277 51.4766 48.3506 51.4766H71.9847C72.7076 51.4766 73.2943 52.0616 73.2943 52.7825C73.2943 53.5034 72.7076 54.0885 71.9847 54.0885Z" fill="black"/>
<path d="M41.3662 54.0885H31.3643C30.6414 54.0885 30.0547 53.5034 30.0547 52.7825C30.0547 52.0616 30.6414 51.4766 31.3643 51.4766H41.3662C42.0891 51.4766 42.6758 52.0616 42.6758 52.7825C42.6758 53.5034 42.0891 54.0885 41.3662 54.0885Z" fill="black"/>
<path d="M71.9849 62.527H31.3643C30.6414 62.527 30.0547 61.9419 30.0547 61.221C30.0547 60.5001 30.6414 59.915 31.3643 59.915H71.9849C72.7078 59.915 73.2945 60.5001 73.2945 61.221C73.2945 61.9419 72.7078 62.527 71.9849 62.527Z" fill="black"/>
<path d="M71.9851 70.966H61.1573C60.4344 70.966 59.8477 70.3809 59.8477 69.66C59.8477 68.9391 60.4344 68.354 61.1573 68.354H71.9869C72.7098 68.354 73.2965 68.9391 73.2965 69.66C73.2965 70.3809 72.708 70.966 71.9851 70.966Z" fill="black"/>
<path d="M54.8691 70.966H31.3643C30.6414 70.966 30.0547 70.3809 30.0547 69.66C30.0547 68.9391 30.6414 68.354 31.3643 68.354H54.8691C55.5921 68.354 56.1788 68.9391 56.1788 69.66C56.1788 70.3809 55.5938 70.966 54.8691 70.966Z" fill="black"/>
<path d="M71.9849 79.4049H31.3643C30.6414 79.4049 30.0547 78.8199 30.0547 78.099C30.0547 77.378 30.6414 76.793 31.3643 76.793H71.9849C72.7078 76.793 73.2945 77.378 73.2945 78.099C73.2945 78.8199 72.7078 79.4049 71.9849 79.4049Z" fill="black"/>
<path d="M71.9849 87.8454H31.3643C30.6414 87.8454 30.0547 87.2603 30.0547 86.5394C30.0547 85.8185 30.6414 85.2334 31.3643 85.2334H71.9849C72.7078 85.2334 73.2945 85.8185 73.2945 86.5394C73.2945 87.2603 72.7078 87.8454 71.9849 87.8454Z" fill="black"/>
<path d="M21.9847 106.476V21.0311C21.9847 20.3903 22.5051 19.8696 23.1494 19.8696H13.3483C12.7057 19.8696 12.1836 20.3903 12.1836 21.0311V106.476C12.1836 107.116 12.7057 107.637 13.3483 107.637H23.1494C22.5068 107.635 21.9847 107.116 21.9847 106.476Z" fill="#C8EFFE"/>
<path d="M90.0013 108.943H13.3473C11.9836 108.943 10.873 107.835 10.873 106.475V21.0309C10.873 19.6709 11.9818 18.5635 13.3473 18.5635H27.3968C28.1197 18.5635 28.7064 19.1486 28.7064 19.8695C28.7064 20.5904 28.1197 21.1754 27.3968 21.1754H13.4923V106.331H89.8564V21.1772H35.5461C34.8232 21.1772 34.2365 20.5921 34.2365 19.8712C34.2365 19.1503 34.8232 18.5652 35.5461 18.5652H90.0031C91.3668 18.5652 92.4774 19.6709 92.4774 21.0327V106.477C92.4756 107.835 91.3668 108.943 90.0013 108.943Z" fill="black"/>
<path d="M63.117 12.8139C62.3277 13.2075 61.8301 14.012 61.8301 14.8913V26.9099C61.8301 44.6799 71.2994 53.7591 85.541 62.4518C86.2883 62.908 87.2312 62.908 87.9803 62.4518C102.222 53.7609 111.691 44.6817 111.691 26.9099V14.8913C111.691 14.012 111.194 13.2075 110.404 12.8139L87.8005 1.54939C87.1457 1.22377 86.3739 1.22377 85.7191 1.54939L63.117 12.8139Z" fill="#FAC600"/>
<path d="M70.1993 23.0784V9.28369L63.117 12.8133C62.3277 13.2069 61.8301 14.0113 61.8301 14.8907V26.9093C61.8301 44.6793 71.2994 53.7585 85.541 62.4512C86.2883 62.9074 87.2312 62.9074 87.9803 62.4512C90.0548 61.1852 92.0262 59.9106 93.8841 58.6029C79.6565 49.9172 70.1993 40.838 70.1993 23.0784Z" fill="#E8B801"/>
<path d="M86.7608 64.1023C86.1025 64.1023 85.4442 63.923 84.8575 63.566C76.4603 58.4413 71.0438 53.9069 67.293 48.8641C62.7356 42.7364 60.5215 35.5552 60.5215 26.9114V14.8928C60.5215 13.5102 61.2915 12.2669 62.533 11.647L85.1351 0.382483C86.1531 -0.124239 87.3685 -0.124239 88.3882 0.382483L110.99 11.647C112.232 12.2652 113.002 13.5085 113.002 14.8928V26.9114C113.002 35.5552 110.786 42.7364 106.23 48.8641C102.48 53.9069 97.063 58.4413 88.6658 63.566C88.0774 63.923 87.4191 64.1023 86.7608 64.1023ZM63.7047 13.9821C63.3572 14.1545 63.1407 14.5028 63.1407 14.8911V26.9096C63.1407 43.8474 71.9744 52.6393 86.2247 61.3371C86.5548 61.5391 86.9651 61.5391 87.2969 61.3371C101.549 52.6393 110.381 43.8474 110.381 26.9096V14.8911C110.381 14.5045 110.164 14.1563 109.817 13.9821L87.2148 2.71758C86.9302 2.5748 86.5897 2.5748 86.3033 2.71758L63.7047 13.9821Z" fill="black"/>
<path d="M102.58 29.2897C102.58 38.0607 95.4508 45.1687 86.6573 45.1687C77.8619 45.1687 70.7324 38.0589 70.7324 29.2897C70.7324 20.5204 77.8619 13.4106 86.6573 13.4106C95.4508 13.4089 102.58 20.5187 102.58 29.2897Z" fill="#4FC123"/>
<path d="M77.4846 29.2897C77.4846 21.6749 82.8592 15.3156 90.0324 13.7711C88.9445 13.536 87.8147 13.4106 86.6553 13.4106C77.86 13.4106 70.7305 20.5204 70.7305 29.2897C70.7305 38.0589 77.86 45.1687 86.6553 45.1687C87.8147 45.1687 88.9428 45.0416 90.0324 44.8082C82.8609 43.2637 77.4846 36.9044 77.4846 29.2897Z" fill="#47A920"/>
<path d="M86.6544 46.4758C77.1518 46.4758 69.4199 38.767 69.4199 29.289C69.4199 19.8128 77.1501 12.104 86.6544 12.104C95.0219 12.104 102.155 18.061 103.616 26.2661C103.742 26.9765 103.269 27.6539 102.557 27.781C101.846 27.9081 101.165 27.4345 101.037 26.7241C99.7976 19.7658 93.749 14.716 86.6544 14.716C78.5959 14.716 72.0391 21.2546 72.0391 29.289C72.0391 37.3252 78.5959 43.8638 86.6544 43.8638C92.82 43.8638 98.3518 39.9737 100.423 34.1821C100.665 33.503 101.415 33.1478 102.096 33.3898C102.777 33.6318 103.133 34.3789 102.89 35.058C100.449 41.8874 93.9253 46.4758 86.6544 46.4758Z" fill="black"/>
<path d="M85.8332 35.1529C85.4857 35.1529 85.1522 35.0153 84.9077 34.7698L79.6728 29.5494C79.1612 29.0392 79.1612 28.212 79.6728 27.7018C80.1844 27.1916 81.0138 27.1916 81.5254 27.7018L85.8349 31.9994L93.0238 24.8304C93.5354 24.3202 94.3648 24.3202 94.8765 24.8304C95.3881 25.3406 95.3881 26.1677 94.8765 26.6779L86.7621 34.7698C86.5142 35.0153 86.1807 35.1529 85.8332 35.1529Z" fill="black"/>
<path d="M29.3928 91.2487H13.9062V77.8789C13.9062 73.6214 17.3793 70.1562 21.6504 70.1562C25.9197 70.1562 29.3946 73.6196 29.3946 77.8789V91.2487H29.3928ZM21.6487 63.1909C13.5151 63.1909 6.91992 69.7661 6.91992 77.8789V92.5668H36.3774V77.8789C36.3774 69.7661 29.7839 63.1909 21.6487 63.1909Z" fill="#6E61B6"/>
<path d="M23.6237 63.3258C22.9777 63.2387 22.3194 63.1899 21.6506 63.1899C13.5171 63.1899 6.92188 69.7651 6.92188 77.8779V92.5659H10.8682V77.8779C10.8682 70.4338 16.4226 64.287 23.6237 63.3258Z" fill="#6354B1"/>
<path d="M36.3784 93.8712H6.92094C6.19803 93.8712 5.61133 93.2861 5.61133 92.5652V77.8773C5.61133 69.0575 12.8054 61.8833 21.6497 61.8833C30.4939 61.8833 37.688 69.0575 37.688 77.8773V92.5652C37.688 93.2861 37.1013 93.8712 36.3784 93.8712ZM30.7034 91.2592H35.0688V77.8773C35.0688 70.4993 29.0498 64.4953 21.6497 64.4953C14.2495 64.4953 8.23054 70.4976 8.23054 77.8773V91.2592H12.5959C12.5959 91.2558 12.5959 91.2523 12.5959 91.2488V77.879C12.5959 72.9006 16.6574 68.8503 21.6497 68.8503C26.6419 68.8503 30.7034 72.9006 30.7034 77.879V91.2488C30.7034 91.2523 30.7034 91.2558 30.7034 91.2592ZM15.2151 89.9428H28.0825V77.879C28.0825 74.3406 25.1961 71.4623 21.6479 71.4623C18.0998 71.4623 15.2134 74.3406 15.2134 77.879V89.9428H15.2151Z" fill="black"/>
<path d="M39.6613 116.694H3.64011C2.35495 116.694 1.3125 115.655 1.3125 114.373V89.2929C1.3125 88.0112 2.35495 86.9717 3.64011 86.9717H39.6613C40.9465 86.9717 41.9889 88.0112 41.9889 89.2929V114.375C41.9889 115.655 40.9465 116.694 39.6613 116.694Z" fill="#FAC600"/>
<path d="M11.1012 114.373V89.2929C11.1012 88.0112 12.1436 86.9717 13.4288 86.9717H3.63816C2.353 86.9717 1.31055 88.0112 1.31055 89.2929V114.375C1.31055 115.656 2.353 116.696 3.63816 116.696H13.4288C12.1436 116.694 11.1012 115.655 11.1012 114.373Z" fill="#E8B801"/>
<path d="M39.6604 118H3.63917C1.63285 118 0.00195312 116.372 0.00195312 114.373V89.2912C0.00195312 87.2904 1.6346 85.6641 3.63917 85.6641H39.6604C41.6667 85.6641 43.2976 87.2922 43.2976 89.2912V94.5221C43.2976 95.243 42.7109 95.8281 41.988 95.8281C41.2651 95.8281 40.6784 95.243 40.6784 94.5221V89.2912C40.6784 88.7305 40.2209 88.276 39.6604 88.276H3.63917C3.07691 88.276 2.62117 88.7323 2.62117 89.2912V114.373C2.62117 114.934 3.07866 115.388 3.63917 115.388H39.6604C40.2226 115.388 40.6784 114.932 40.6784 114.373V102.649C40.6784 101.928 41.2651 101.343 41.988 101.343C42.7109 101.343 43.2976 101.928 43.2976 102.649V114.373C43.2976 116.374 41.6667 118 39.6604 118Z" fill="black"/>
</g>
<defs>
<clipPath id="clip0_60_3984">
<rect width="113" height="118" fill="white"/>
</clipPath>
</defs>
</svg>
