<svg width="98" height="95" viewBox="0 0 98 95" fill="none" xmlns="http://www.w3.org/2000/svg">
<path d="M95.4075 43.0034L85.5057 55.3941C83.4952 57.9094 79.6839 57.9094 77.6734 55.3941L67.7716 43.0034C65.3141 40.0912 67.5891 35.2827 71.4075 35.3938H75.7131C71.2034 22.8488 59.1632 13.923 45.0708 14.1193C27.4387 14.3661 13.2183 29.0513 13.4454 46.7584C13.671 64.3588 27.9474 78.5548 45.5278 78.5548C48.4193 78.5548 51.2202 78.1709 53.8846 77.4508C55.2815 77.0727 56.7733 77.4724 57.7965 78.4999L62.9357 83.6605C64.1558 84.8857 63.7404 86.9696 62.1409 87.619C57.0679 89.6798 51.5306 90.8256 45.7275 90.8516C21.2303 90.9598 1.19531 70.9351 1.19531 46.3341C1.19531 21.7477 21.0435 1.81667 45.5278 1.81667C66.2511 1.81667 83.6504 16.0964 88.5079 35.3909H91.773C95.59 35.2827 97.8635 40.0912 95.4075 43.0034Z" fill="#BBEC6C"/>
<path d="M13.4438 46.7584C13.6579 63.4336 26.4842 77.051 42.7841 78.4364C41.8874 78.5114 40.982 78.5547 40.0665 78.5547C22.4862 78.5547 8.20976 64.3587 7.98413 46.7584C7.75706 29.0527 21.9774 14.366 39.6095 14.1192C40.6888 14.1034 41.7566 14.1438 42.81 14.2332C26.2371 15.6403 13.2268 29.8161 13.4438 46.7584Z" fill="#A2E62E"/>
<path d="M56.6797 87.6196C58.2792 86.9701 58.6946 84.8863 57.4745 83.6611L52.3353 78.5005C52.1312 78.2955 51.907 78.1166 51.6699 77.9622C52.4172 77.8164 53.1559 77.6476 53.8845 77.4513C55.2814 77.0732 56.7731 77.473 57.7964 78.5005L62.9355 83.6611C64.1557 84.8863 63.7403 86.9701 62.1408 87.6196C57.0678 89.6803 51.5305 90.8262 45.7274 90.8521C44.7473 90.8565 43.7743 90.8247 42.8086 90.7656C47.6876 90.4668 52.3525 89.3773 56.6797 87.6196Z" fill="#A2E62E"/>
<path d="M95.4075 43.0026L85.5057 55.3933C83.6633 57.6994 80.3062 57.8899 78.2109 55.9662C79.3404 55.7555 80.4111 55.1566 81.2029 54.1666L89.9464 43.0026C92.4025 40.0904 90.1289 35.2819 86.3105 35.393H83.0453C78.4063 16.9571 62.3134 3.10025 42.8145 1.90245C43.7127 1.84762 44.6166 1.81731 45.5277 1.81731C66.2511 1.81731 83.6504 16.097 88.5079 35.3916H91.773C95.59 35.2819 97.8635 40.0904 95.4075 43.0026Z" fill="#A2E62E"/>
<path d="M91.9341 84.0499L51.5552 43.504C50.7978 42.7434 49.8493 42.2023 48.8088 41.9396L39.7822 39.6465L42.0644 48.7122C42.3259 49.757 42.8649 50.7095 43.6222 51.47L83.9997 92.016C86.1899 94.2153 89.741 94.2167 91.9326 92.016C93.0263 90.9178 93.5753 89.4746 93.5753 88.0344C93.5767 86.5913 93.0292 85.1511 91.9341 84.0499Z" fill="#0593FC"/>
<path d="M91.9351 92.0154C90.12 93.838 87.3722 94.1483 85.238 92.9519C85.6807 92.7037 86.0974 92.392 86.474 92.0154C87.5676 90.9171 88.1166 89.474 88.1166 88.0338C88.1166 86.5907 87.5691 85.1504 86.4725 84.0508L46.0951 43.5048C45.3377 42.7442 44.3892 42.2031 43.3487 41.9404L40.1569 41.1294L39.7832 39.6473L48.8098 41.9404C49.8503 42.2031 50.7988 42.7442 51.5561 43.5048L91.9336 84.0508C93.0287 85.1519 93.5777 86.5907 93.5777 88.0338C93.5777 89.474 93.0287 90.9171 91.9351 92.0154Z" fill="#0181FA"/>
<path d="M91.9331 84.0499L85.41 77.4996L77.4785 85.4642L84.0016 92.0145C86.1918 94.2138 89.7429 94.2153 91.9346 92.0145C93.0282 90.9163 93.5772 89.4732 93.5772 88.0329C93.5758 86.5913 93.0282 85.151 91.9331 84.0499Z" fill="#F07181"/>
<path d="M91.9348 92.0154C90.1197 93.838 87.3719 94.1483 85.2378 92.9519C85.6804 92.7037 86.0972 92.392 86.4737 92.0154C87.5674 90.9171 88.1163 89.474 88.1163 88.0338C88.1163 86.5907 87.5688 85.1504 86.4723 84.0508L82.6797 80.2424L85.4102 77.5004L91.9333 84.0508C93.0284 85.1519 93.5774 86.5907 93.5774 88.0338C93.5774 89.474 93.0284 90.9171 91.9348 92.0154Z" fill="#EB5569"/>
<path d="M53.821 45.7786L51.5561 43.5042C50.7988 42.7437 49.8503 42.2025 48.8098 41.9399L39.7832 39.6467L42.0654 48.711C42.3269 49.7558 42.8658 50.7083 43.6232 51.4688L45.8881 53.7432L53.821 45.7786Z" fill="#FFDFCF"/>
<path d="M46.0951 43.5042C45.3377 42.7437 44.3892 42.2025 43.3487 41.9399L40.1569 41.1288L39.7832 39.6467L48.8098 41.9399C49.8503 42.2025 50.7988 42.7437 51.5561 43.5042L53.821 45.7786L51.0905 48.5205L46.0951 43.5042Z" fill="#FFCEBF"/>
<path d="M45.526 0.735558C33.3967 0.735558 21.9931 5.4791 13.4163 14.0917C4.83958 22.7042 0.117188 34.154 0.117188 46.3339C0.117188 52.6923 1.40629 58.853 3.94713 64.6414C6.4003 70.2291 9.89539 75.2036 14.3347 79.4262C14.7672 79.8375 15.4484 79.8187 15.858 79.3843C16.2676 78.9499 16.2489 78.2659 15.8163 77.8546C7.0815 69.548 2.27144 58.3537 2.27144 46.3339C2.27144 22.3838 21.6755 2.8988 45.526 2.8988C65.3613 2.8988 82.6068 16.3689 87.4599 35.6562C87.5807 36.1368 88.0118 36.4731 88.5047 36.4731H91.7699C91.7799 36.4731 91.79 36.4731 91.8015 36.4731C93.3909 36.424 94.476 37.5006 94.9632 38.5194C95.4547 39.5469 95.6142 41.0795 94.5823 42.3018C94.5766 42.309 94.5708 42.3163 94.5636 42.3235L84.6618 54.7141C83.9088 55.655 82.7878 56.1962 81.5864 56.1962C80.3835 56.1962 79.2626 55.6565 78.5109 54.7141L68.6092 42.3235C68.6034 42.3163 68.5977 42.309 68.5905 42.3018C67.5601 41.0795 67.7181 39.5469 68.2096 38.5194C68.6982 37.4991 69.7862 36.4283 71.3713 36.4731C71.3814 36.4731 71.3929 36.4731 71.4029 36.4731H75.7085C76.0592 36.4731 76.3883 36.3013 76.591 36.0127C76.7921 35.7241 76.8424 35.3546 76.7232 35.0227C71.9232 21.6738 59.1989 12.8318 45.0518 13.0353C36.2379 13.158 27.9744 16.7456 21.7847 23.1343C15.5979 29.5244 12.2523 37.9176 12.3658 46.7712C12.4793 55.5757 15.9773 63.8332 22.2187 70.0257C28.4659 76.2224 36.7423 79.6354 45.526 79.6354C48.4563 79.6354 51.3608 79.2516 54.1617 78.4939C55.185 78.2183 56.2829 78.5127 57.0317 79.2631L62.1723 84.4237C62.4956 84.7484 62.6278 85.1929 62.5373 85.6431C62.4468 86.0905 62.155 86.4441 61.7354 86.6144C56.6465 88.6824 51.2587 89.7431 45.7215 89.7676C45.6568 89.7676 45.5907 89.7676 45.526 89.7676C36.6906 89.7676 28.1886 87.092 20.9253 82.0252C20.4367 81.6847 19.7656 81.8059 19.425 82.2965C19.0858 82.7872 19.2065 83.4626 19.6952 83.8032C27.378 89.1629 36.3787 91.9684 45.7316 91.9323C51.5433 91.9063 57.1998 90.7922 62.5445 88.6203C63.6295 88.1787 64.4171 87.2277 64.6499 86.0732C64.8841 84.9158 64.5277 83.7267 63.6971 82.8926L58.5565 77.7348C57.2659 76.4375 55.366 75.928 53.6027 76.4057C50.9842 77.1128 48.2681 77.4722 45.5275 77.4722C28.6484 77.4722 14.7399 63.6875 14.5229 46.7452C14.3031 29.5908 28.0132 15.441 45.0848 15.2029C57.7962 15.0326 69.2745 22.6436 74.1363 34.3113H71.4216C69.2429 34.2535 67.2654 35.5076 66.271 37.5843C65.2707 39.671 65.528 42.0103 66.9392 43.693L76.8324 56.0736C77.9965 57.5297 79.7296 58.3652 81.5893 58.3652C83.4489 58.3652 85.1821 57.5297 86.3462 56.0736L96.2393 43.6944C97.652 42.0118 97.9078 39.6725 96.9076 37.5857C95.9117 35.5062 93.9385 34.2521 91.7569 34.3098H89.3382C86.7989 24.9743 81.2472 16.5522 73.6348 10.5199C69.7143 7.41288 65.3498 4.99421 60.6618 3.33028C55.8101 1.60864 50.7184 0.735558 45.526 0.735558Z" fill="black"/>
<path d="M39.7829 38.5629C39.5012 38.5629 39.2253 38.6741 39.0212 38.8804C38.7525 39.1503 38.6447 39.5414 38.7381 39.9108L41.0203 48.9765C41.3293 50.2089 41.9659 51.336 42.8612 52.2351L83.2387 92.7811C84.502 94.0496 86.1805 94.748 87.9669 94.748C87.9669 94.748 87.9669 94.748 87.9683 94.748C89.7546 94.748 91.4332 94.0496 92.6964 92.7811C93.9597 91.5126 94.6538 89.827 94.6538 88.0346C94.6538 86.2423 93.9582 84.5553 92.695 83.2868L81.5602 72.1054C81.1391 71.6826 80.4564 71.6826 80.0354 72.1054C79.6143 72.5283 79.6143 73.2138 80.0354 73.6366L91.1702 84.8179C92.0267 85.678 92.4981 86.821 92.4981 88.0361C92.4981 89.2512 92.0267 90.3941 91.1717 91.2528C90.3151 92.1129 89.1784 92.5863 87.9669 92.5863C86.7568 92.5863 85.6186 92.1129 84.7635 91.2528L44.386 50.7039C43.7666 50.0819 43.3254 49.3012 43.1113 48.4469L41.2718 41.1404L48.5451 42.989C49.3973 43.204 50.1748 43.6471 50.7942 44.2705L75.2627 68.8411C75.6838 69.2639 76.3664 69.2639 76.7875 68.8411C77.2085 68.4183 77.2085 67.7328 76.7875 67.3099L52.319 42.7379C51.4236 41.8388 50.3012 41.1995 49.0739 40.8893L40.0488 38.5961C39.9597 38.573 39.8706 38.5629 39.7829 38.5629Z" fill="black"/>
<path d="M85.4103 76.4167C85.1344 76.4167 84.8585 76.5221 84.6487 76.7342L76.7172 84.6988C76.2961 85.1216 76.2961 85.8071 76.7172 86.2299L83.2403 92.7803C85.8472 95.3981 90.0911 95.3981 92.698 92.7803C93.9612 91.5118 94.6554 89.8262 94.6554 88.0324C94.6554 86.2386 93.9598 84.553 92.6966 83.2845L86.1735 76.7342C85.9608 76.5235 85.6848 76.4167 85.4103 76.4167ZM79.0022 85.4651L85.4103 79.0302L91.1718 84.8157C92.0283 85.6758 92.4997 86.8187 92.4997 88.0338C92.4997 89.249 92.0283 90.3919 91.1732 91.2506C89.4056 93.0256 86.5313 93.0242 84.7636 91.2506L79.0022 85.4651Z" fill="black"/>
<path d="M39.7829 38.5632C39.5012 38.5632 39.2253 38.6743 39.0212 38.8806C38.7525 39.1505 38.6447 39.5416 38.7381 39.911L41.0203 48.9767C41.3293 50.2092 41.9659 51.3362 42.8612 52.2353L45.1262 54.5097C45.3288 54.7131 45.6018 54.8271 45.8878 54.8271C46.1738 54.8271 46.4483 54.7131 46.6495 54.5097L54.581 46.5451C55.0021 46.1222 55.0021 45.4367 54.581 45.0139L52.3161 42.7395C51.4208 41.8405 50.2984 41.2012 49.0696 40.8909L40.0445 38.5978C39.9597 38.5747 39.8706 38.5632 39.7829 38.5632ZM45.8878 52.2137L44.386 50.7041C43.7652 50.0807 43.3254 49.3014 43.1113 48.4471L41.2718 41.1406L48.5451 42.9892C49.3973 43.2042 50.1733 43.6473 50.7942 44.2707L52.2974 45.7802L45.8878 52.2137Z" fill="black"/>
<path d="M80.798 71.7861C80.5221 71.7861 80.2462 71.8915 80.0364 72.1036L72.1049 80.0682C71.6838 80.4911 71.6838 81.1765 72.1049 81.5994C72.5259 82.0222 73.2086 82.0222 73.6297 81.5994L81.5612 73.6348C81.9822 73.2119 81.9822 72.5265 81.5612 72.1036C81.3485 71.8915 81.0725 71.7861 80.798 71.7861Z" fill="black"/>
<path d="M39.7821 38.5629H23.8415C23.2465 38.5629 22.7637 39.0477 22.7637 39.6452C22.7637 40.2426 23.2465 40.7275 23.8415 40.7275H39.7821C40.3771 40.7275 40.86 40.2426 40.86 39.6452C40.86 39.0477 40.3771 38.5629 39.7821 38.5629Z" fill="black"/>
<path d="M58.0961 32.1761H54.5866C53.9917 32.1761 53.5088 32.661 53.5088 33.2585C53.5088 33.8559 53.9917 34.3408 54.5866 34.3408H58.0961C58.6911 34.3408 59.1739 33.8559 59.1739 33.2585C59.1739 32.661 58.6911 32.1761 58.0961 32.1761Z" fill="black"/>
<path d="M47.8514 32.1766H27.9587C27.3637 32.1766 26.8809 32.6615 26.8809 33.259C26.8809 33.8564 27.3637 34.3413 27.9587 34.3413H47.8528C48.4478 34.3413 48.9307 33.8564 48.9307 33.259C48.9307 32.6615 48.4478 32.1766 47.8514 32.1766Z" fill="black"/>
<path d="M88.5058 34.31C88.411 34.31 88.3147 34.323 88.2184 34.349C87.645 34.5077 87.3087 35.1037 87.4668 35.681L88.7401 40.3091C88.8981 40.8849 89.4931 41.2226 90.0665 41.0638C90.6399 40.9051 90.9762 40.3091 90.8181 39.7318L89.5449 35.1037C89.4126 34.6246 88.9786 34.31 88.5058 34.31Z" fill="black"/>
</svg>
