<svg width="110" height="110" viewBox="0 0 110 110" fill="none" xmlns="http://www.w3.org/2000/svg">
<path fill-rule="evenodd" clip-rule="evenodd" d="M53.2467 101.658C71.6944 101.658 86.7396 86.6089 86.7396 68.1613C86.7396 49.7138 71.6944 34.6646 53.2467 34.6646C34.7952 34.6646 19.75 49.7138 19.75 68.1613C19.75 86.6089 34.7952 101.658 53.2467 101.658Z" fill="#FFD064"/>
<path fill-rule="evenodd" clip-rule="evenodd" d="M51.834 34.6963C69.6762 35.4361 83.9145 50.137 83.9145 68.1613C83.9145 86.1855 69.6762 100.886 51.834 101.626C52.3009 101.646 52.7716 101.658 53.2463 101.658C71.7453 101.658 86.7391 86.6603 86.7391 68.1613C86.7391 49.6623 71.7453 34.6646 53.2463 34.6646C52.7716 34.6646 52.3009 34.6764 51.834 34.6963Z" fill="#F5B829"/>
<path fill-rule="evenodd" clip-rule="evenodd" d="M53.2464 93.738C67.3344 93.738 78.8229 82.2495 78.8229 68.1615C78.8229 54.0737 67.3344 42.585 53.2464 42.585C39.1586 42.585 27.666 54.0737 27.666 68.1615C27.666 82.2495 39.1586 93.738 53.2464 93.738Z" fill="#FFC338"/>
<path fill-rule="evenodd" clip-rule="evenodd" d="M30.7201 68.1615C30.7201 54.5484 41.3543 43.4197 54.7696 42.6285C54.2673 42.6007 53.7567 42.585 53.2464 42.585C39.119 42.585 27.666 54.034 27.666 68.1615C27.666 82.2889 39.119 93.738 53.2464 93.738C53.7567 93.738 54.2673 93.7222 54.7696 93.6944C41.3543 92.9033 30.7201 81.7745 30.7201 68.1615Z" fill="#F5B829"/>
<path fill-rule="evenodd" clip-rule="evenodd" d="M53.9637 18.854L19.5508 19.7103V49.9577C19.5508 51.6239 20.7077 53.0125 22.351 53.3133C59.1245 60.1404 48.7797 60.1404 85.5764 53.3133C87.1965 53.0125 88.3536 51.6239 88.3536 49.9577V19.7103L53.9637 18.854Z" fill="#837683"/>
<path fill-rule="evenodd" clip-rule="evenodd" d="M53.9631 18.854L51.5332 18.9235L83.4929 19.7103V49.9577C83.4929 51.6239 82.3358 53.0125 80.7158 53.3133C64.5624 56.3219 57.4808 57.9881 51.5332 58.3585C59.1469 58.8213 64.9558 57.1551 85.5758 53.3133C87.1958 53.0125 88.353 51.6239 88.353 49.9577V19.7103L53.9631 18.854Z" fill="#685E68"/>
<path fill-rule="evenodd" clip-rule="evenodd" d="M54.9351 8.00012L98.9524 19.6871C100.387 20.0574 100.387 22.117 98.9524 22.5104L54.9351 34.1976C54.2641 34.3827 53.6393 34.3827 52.945 34.1976L8.95079 22.5104C7.49297 22.117 7.49297 20.0574 8.95079 19.6871L52.945 8.00012C53.6393 7.81506 54.2641 7.81506 54.9351 8.00012Z" fill="#685E68"/>
<path fill-rule="evenodd" clip-rule="evenodd" d="M95.0875 18.6689L98.9524 19.6872C100.387 20.0575 100.387 22.1171 98.9524 22.5105L54.9351 34.1977C54.2641 34.3828 53.6393 34.3828 52.945 34.1977L8.95079 22.5105C7.49297 22.1171 7.49297 20.0575 8.95079 19.6872L12.7926 18.6689L52.945 29.3377C53.6393 29.4996 54.2641 29.4996 54.9351 29.3377L95.0875 18.6689Z" fill="#544854"/>
<path fill-rule="evenodd" clip-rule="evenodd" d="M101.119 47.8994L95.6136 51.0756C94.899 51.4727 94.502 52.1875 94.502 53.0079V66.4012C94.502 67.3013 95.5608 67.8306 96.2753 67.2747L101.119 63.6484L105.937 67.2747C106.678 67.8306 107.736 67.3013 107.736 66.4012V53.0079C107.736 52.1875 107.339 51.4727 106.625 51.0756L101.119 47.8994Z" fill="#FFE177"/>
<path fill-rule="evenodd" clip-rule="evenodd" d="M101.119 47.8994L99.1075 49.0641L101.807 50.6257C102.522 51.0493 102.945 51.7373 102.945 52.558V64.9718L105.937 67.2747C106.678 67.8306 107.736 67.3013 107.736 66.4012V53.0079C107.736 52.1875 107.339 51.4727 106.625 51.0756L101.119 47.8994ZM94.502 64.4426V66.4012C94.502 67.3013 95.5608 67.8306 96.2753 67.2747L101.119 63.6484L98.3399 61.5573L94.502 64.4426Z" fill="#FFD064"/>
<path fill-rule="evenodd" clip-rule="evenodd" d="M17.4555 27.1423L2.79202 23.2444C2.03582 23.0434 1.50977 22.3588 1.50977 21.5765C1.50977 20.7942 2.03626 20.1099 2.79224 19.9091L53.1901 6.52422C53.4802 6.447 53.7856 6.447 54.076 6.52422L104.474 19.9091C105.23 20.1099 105.756 20.7942 105.756 21.5765C105.756 22.3588 105.23 23.0434 104.474 23.2444L102.701 23.7157V46.5974L107.629 49.4514C108.162 49.7598 108.49 50.3288 108.49 50.9446V68.6097C108.49 69.2637 108.12 69.8616 107.535 70.1536C106.95 70.4456 106.25 70.3818 105.727 69.9886L100.975 66.4143L96.223 69.9886C95.7004 70.3818 95.0003 70.4456 94.4151 70.1536C93.83 69.8616 93.4603 69.2637 93.4603 68.6097V50.9446C93.4603 50.3288 93.7883 49.7598 94.3211 49.4514L99.2497 46.5974V24.6332L89.8106 27.1423V53.3445C89.8106 54.1777 89.2151 54.8919 88.3955 55.0418C87.5723 55.1923 86.7708 55.3398 85.99 55.4846C87.6443 59.5403 88.5569 63.972 88.5569 68.6097C88.5569 87.8416 72.8648 103.533 53.6329 103.533C34.4013 103.533 18.7092 87.8416 18.7092 68.6097C18.7092 63.972 19.6218 59.5403 21.2759 55.4846C20.4951 55.3398 19.6936 55.1923 18.8706 55.0418C18.051 54.8919 17.4555 54.1777 17.4555 53.3445V27.1423ZM86.3597 28.0598L54.0764 36.6418C53.7859 36.719 53.4802 36.719 53.1897 36.6418L20.9064 28.0598V51.907C59.4731 59.0141 47.793 59.0141 86.3597 51.907V28.0598ZM82.5187 56.1329C80.9468 56.4291 79.4681 56.7107 78.0732 56.9782C79.7616 60.5057 80.708 64.4511 80.708 68.6097C80.708 83.5186 68.5418 95.6848 53.6329 95.6848C38.7241 95.6848 26.5581 83.5186 26.5581 68.6097C26.5581 64.4511 27.5045 60.5057 29.1927 56.9782C27.7978 56.7107 26.3191 56.4291 24.7474 56.1329C23.0834 59.9618 22.1602 64.1817 22.1602 68.6097C22.1602 85.9412 36.3017 100.082 53.6329 100.082C70.9644 100.082 85.1059 85.9412 85.1059 68.6097C85.1059 64.1817 84.1827 59.9618 82.5187 56.1329ZM74.5526 57.6565C69.5068 58.6319 65.6952 59.3751 62.5311 59.8867C62.5843 60.0017 62.6361 60.1184 62.6859 60.2372C63.0552 61.1151 62.6419 62.1275 61.7641 62.4965C60.8862 62.8656 59.8738 62.4525 59.5048 61.5745C59.3245 61.1459 59.1094 60.7568 58.8646 60.4063C55.1775 60.8364 52.2267 60.8426 48.5602 60.4246C48.2149 61.0359 48.0322 61.7531 48.0713 62.5608C48.1521 64.213 49.1874 65.1814 50.4615 65.8043C51.5324 66.328 52.7693 66.6263 53.9358 66.8182C58.1401 67.5061 62.8257 69.3346 63.4361 74.3334L63.4363 74.3358C64.0461 79.3863 59.6691 82.1257 55.3584 82.6841V84.6533C55.3584 85.6058 54.5854 86.3788 53.6329 86.3788C52.6807 86.3788 51.9074 85.6058 51.9074 84.6533V82.6595C48.147 82.102 44.8094 79.7864 43.8281 75.8449C43.5981 74.9209 44.1615 73.9838 45.0857 73.7536C46.0097 73.5237 46.9469 74.0871 47.1768 75.0113C47.9321 78.0447 50.9586 79.4078 53.9224 79.3382C55.4747 79.3015 57.1995 78.9023 58.4729 78.0244C59.5028 77.3144 60.1905 76.2457 60.0104 74.7505C59.8296 73.2733 58.9977 72.3167 57.9191 71.666C56.5853 70.8615 54.9152 70.4754 53.3786 70.2239L53.3769 70.2237C49.292 69.5512 44.8616 67.5852 44.6244 62.7288L44.6242 62.728C44.5754 61.716 44.715 60.781 45.0072 59.9305C41.7896 59.4178 37.9047 58.6599 32.7133 57.6565C30.987 60.9337 30.009 64.6614 30.009 68.6097C30.009 81.6184 40.6245 92.2338 53.6329 92.2338C66.6416 92.2338 77.257 81.6184 77.257 68.6097C77.257 64.6614 76.2789 60.9337 74.5526 57.6565ZM53.6329 9.97714L9.95453 21.5776L53.6329 33.1887L97.3116 21.5776L53.6329 9.97714ZM100.975 49.586L96.9113 51.9393V65.1529L99.938 62.8764C100.552 62.4144 101.398 62.4144 102.012 62.8764L105.039 65.1529V51.9393L100.975 49.586Z" fill="black"/>
</svg>
